<?xml version="1.0" encoding="utf-8"?>
<!-- Generator: Adobe Illustrator 23.0.4, SVG Export Plug-In . SVG Version: 6.00 Build 0)  -->
<svg version="1.0" id="Слой_1" xmlns="http://www.w3.org/2000/svg" xmlns:xlink="http://www.w3.org/1999/xlink" x="0px" y="0px"
	 viewBox="0 0 131.5 130" style="enable-background:new 0 0 131.5 130;" xml:space="preserve">
<style type="text/css">
	.st0{clip-path:url(#SVGID_2_);fill:#86C067;}
	.st1{clip-path:url(#SVGID_4_);fill:#AAD5F2;}
	.st2{clip-path:url(#SVGID_6_);fill:#D0E7F9;}
	.st3{fill:#95CFF2;}
	.st4{fill:#AAD5F2;}
	.st5{fill:#D0E7F9;}
	.st6{fill:#3CA3DC;}
	.st7{fill:#ABD6F4;}
	.st8{fill:#3D4F9D;}
	.st9{opacity:0.4;}
	.st10{clip-path:url(#SVGID_8_);fill:#D0E7F9;}
	.st11{fill:#EB5693;}
	.st12{fill:#F6D30F;}
	.st13{fill:#FFFFFF;}
</style>
<g>
	<g>
		<defs>
			<circle id="SVGID_1_" cx="65.7" cy="65.3" r="62"/>
		</defs>
		<clipPath id="SVGID_2_">
			<use xlink:href="#SVGID_1_"  style="overflow:visible;"/>
		</clipPath>
		<circle class="st0" cx="65.7" cy="65.3" r="62"/>
	</g>
	<g>
		<defs>
			<circle id="SVGID_3_" cx="65.7" cy="65.3" r="62"/>
		</defs>
		<clipPath id="SVGID_4_">
			<use xlink:href="#SVGID_3_"  style="overflow:visible;"/>
		</clipPath>
		<path class="st1" d="M90.4,133.2H38.2v-9.7c0-3.1,2.5-5.7,5.7-5.7h39.9c3.6,0,6.6,2.9,6.6,6.6V133.2z"/>
	</g>
	<g>
		<defs>
			<circle id="SVGID_5_" cx="65.7" cy="65.3" r="62"/>
		</defs>
		<clipPath id="SVGID_6_">
			<use xlink:href="#SVGID_5_"  style="overflow:visible;"/>
		</clipPath>
		<path class="st2" d="M45.4,117.8h47.3c2.9,0,5.2,2.3,5.2,5.2l0,0H50.6C47.8,122.9,45.4,120.6,45.4,117.8L45.4,117.8z"/>
	</g>
</g>
<polygon class="st3" points="77.9,113.6 55.5,113.6 57.2,99.9 76.1,99.9 "/>
<path class="st4" d="M88,117.7H45.4v-0.5c0-2.6,2.1-4.7,4.7-4.7h32.7C85.7,112.5,88,114.8,88,117.7L88,117.7z"/>
<g>
	<path class="st5" d="M122.4,101.6H9.1c-3.3,0-6.1-2.7-6.1-6.1V15.6c0-3.3,2.7-6.1,6.1-6.1h113.3c3.3,0,6.1,2.7,6.1,6.1v79.9
		C128.5,98.9,125.8,101.6,122.4,101.6z"/>
	<rect x="8.8" y="14.4" class="st6" width="113.9" height="82.5"/>
	<g>
		<path class="st7" d="M109.9,87H21.7c-2.1,0-3.8-1.7-3.8-3.8V6.3c0-2.1,1.7-3.8,3.8-3.8h88.2c2.1,0,3.8,1.7,3.8,3.8v76.9
			C113.7,85.2,112,87,109.9,87z"/>
		<path class="st8" d="M113.7,26.1H17.8V6.2c0-2.1,1.7-3.8,3.8-3.8h88.3c2.1,0,3.8,1.7,3.8,3.8V26.1z"/>
		<g class="st9">
			<g>
				<defs>
					<path id="SVGID_7_" d="M109.9,86.7H21.7c-2.1,0-3.8-1.7-3.8-3.8V6.2c0-2.1,1.7-3.8,3.8-3.8h88.2c2.1,0,3.8,1.7,3.8,3.8v76.7
						C113.7,84.9,112,86.7,109.9,86.7z"/>
				</defs>
				<clipPath id="SVGID_8_">
					<use xlink:href="#SVGID_7_"  style="overflow:visible;"/>
				</clipPath>
				<path class="st10" d="M104,0.4L27.4-5.1c-0.1,1.8-0.2,3.6-0.2,5.5c0,42.1,34.7,76.8,76.8,76.8c38.1,0,70.7-28.3,76.1-66L104,0.4
					z"/>
			</g>
		</g>
		<g>
			<circle class="st11" cx="102.3" cy="14.3" r="7.4"/>
			<circle class="st12" cx="84.4" cy="14.3" r="7.4"/>
			<path class="st13" d="M86.3,16.1h-3.8c-1,0-1.8-0.8-1.8-1.8v-0.1c0-1,0.8-1.8,1.8-1.8h3.8c1,0,1.8,0.8,1.8,1.8v0.1
				C88.1,15.3,87.3,16.1,86.3,16.1z"/>
			<g>
				<path class="st13" d="M102.8,17.4l-3.7-3.7c-0.7-0.7-0.7-1.9,0-2.7l0,0c0.7-0.7,1.9-0.7,2.7,0l3.7,3.7c0.7,0.7,0.7,1.9,0,2.7
					l0,0C104.7,18.2,103.5,18.2,102.8,17.4z"/>
				<path class="st13" d="M105.4,13.8l-3.7,3.7c-0.7,0.7-1.9,0.7-2.7,0l0,0c-0.7-0.7-0.7-1.9,0-2.7l3.7-3.7c0.7-0.7,1.9-0.7,2.7,0
					l0,0C106.2,11.8,106.2,13,105.4,13.8z"/>
			</g>
		</g>
	</g>
	<g>
		<path class="st8" d="M60.5,73.8c-3,0.1-5.1-2.8-4-5.6c1.6-3.8,3-7.6,4.5-11.3c2.2-5.6,4.4-11.1,6.6-16.7c0.8-2.1,2.3-2.9,4.4-2.7
			c1.7,0.2,3.1,1.4,3.4,3.4c0.1,0.7,0,1.5-0.3,2.1c-3.7,9.4-7.4,18.8-11.2,28.2C63.3,72.8,62,73.6,60.5,73.8z"/>
		<path class="st8" d="M47.6,68.3c-0.2,1.9-1.2,3.4-2.9,3.9c-1.7,0.6-3.6,0-4.5-1.5c-2.7-4.5-5.3-9.1-7.9-13.6
			c-0.7-1.2-0.6-2.5,0.1-3.7c2.5-4.2,5.1-8.5,7.7-12.7c1.3-2,3.6-2.5,5.6-1.2c1.8,1.2,2.3,3.5,1.2,5.5c-1.9,3.2-3.7,6.3-5.7,9.4
			c-0.5,0.8-0.5,1.3,0,2.1c1.8,3.1,3.6,6.2,5.4,9.3C47,66.5,47.2,67.4,47.6,68.3z"/>
		<path class="st8" d="M88,72.3c-2.9,0-4.8-3.2-3.3-5.9c1.8-3.4,3.8-6.7,5.8-9.9c0.5-0.8,0.5-1.4,0-2.2c-1.9-3.1-3.8-6.2-5.6-9.3
			c-1.5-2.5-0.3-5.3,2.5-6.1c1.5-0.4,3.2,0.2,4.1,1.7c2.6,4.3,5.2,8.6,7.8,12.9c0.8,1.3,0.7,2.7-0.1,4.1c-2.5,4.3-5,8.6-7.5,12.9
			C90.8,71.7,89.7,72.4,88,72.3z"/>
	</g>
</g>
</svg>
