<svg height="512pt" viewBox="0 0 512 512.00075" width="512pt" xmlns="http://www.w3.org/2000/svg"><path d="m512 256c0 141.386719-114.613281 256-256 256-141.382812 0-256-114.613281-256-256 0-141.382812 114.617188-256 256-256 141.386719 0 256 114.617188 256 256zm0 0" fill="#10dd44"/><path d="m482 118.410156v257.929688c-1.699219 3.199218-3.480469 6.359375-5.320312 9.480468h-441.359376c-1.839843-3.121093-3.621093-6.28125-5.320312-9.480468v-257.929688c0-15.238281 12.351562-27.589844 27.589844-27.589844h396.820312c15.238282 0 27.589844 12.351563 27.589844 27.589844zm0 0" fill="#465365"/><path d="m107.589844 90.820312c-15.238282 0-27.589844 12.351563-27.589844 27.589844v267.410156h-44.679688c-1.839843-3.121093-3.621093-6.28125-5.320312-9.480468v-257.929688c0-15.238281 12.351562-27.589844 27.589844-27.589844zm0 0" fill="#3e4959"/><path d="m55 349.859375v-223.078125c0-6.050781 4.910156-10.960938 10.960938-10.960938h380.078124c6.054688 0 10.960938 4.910157 10.960938 10.960938v223.078125c0 6.054687-4.90625 10.960937-10.960938 10.960937h-380.078124c-6.050782 0-10.960938-4.90625-10.960938-10.960937zm0 0" fill="#fff"/><path d="m105 349.859375v-223.078125c0-6.050781 4.910156-10.960938 10.960938-10.960938h-50c-6.050782 0-10.960938 4.910157-10.960938 10.960938v223.078125c0 6.054687 4.910156 10.960937 10.960938 10.960937h50c-6.050782 0-10.960938-4.90625-10.960938-10.960937zm0 0" fill="#f2f2f2"/><path d="m476.679688 385.820312c-10.570313 17.941407-23.28125 34.492188-37.757813 49.28125h-365.839844c-14.480469-14.789062-27.191406-31.339843-37.761719-49.28125zm0 0" fill="#465365"/><path d="m292.640625 414.003906h-73.28125c-3.09375 0-6.046875 1.308594-8.128906 3.597656l-15.917969 17.5h121.375l-15.917969-17.5c-2.082031-2.292968-5.035156-3.597656-8.128906-3.597656zm0 0" fill="#242d3c"/><path d="m241.050781 57.8125v19.910156.007813 283.089843h-146.46875v-303.007812c0-4.75 3.847657-8.601562 8.597657-8.601562h129.273437c4.75 0 8.597656 3.851562 8.597656 8.601562zm0 0" fill="#13adb2"/><path d="m145.792969 49.210938v311.609374h-51.210938v-303.007812c0-4.75 3.847657-8.601562 8.597657-8.601562zm0 0" fill="#16c6cc"/><g fill="#21d8de"><path d="m153.410156 257.484375c0 4.203125-3.410156 7.613281-7.617187 7.613281h-51.214844v-15.230468h51.214844c4.207031 0 7.617187 3.410156 7.617187 7.617187zm0 0"/><path d="m174.695312 214.304688c0 4.207031-3.410156 7.613281-7.613281 7.613281h-72.503906v-15.226563h72.503906c4.203125-.003906 7.613281 3.40625 7.613281 7.613282zm0 0"/><path d="m153.410156 171.125c0 4.207031-3.410156 7.617188-7.617187 7.617188h-51.214844v-15.230469h51.214844c4.207031 0 7.617187 3.410156 7.617187 7.613281zm0 0"/><path d="m174.695312 127.949219c0 4.203125-3.410156 7.613281-7.613281 7.613281h-72.503906v-15.230469h72.503906c4.203125 0 7.613281 3.410157 7.613281 7.617188zm0 0"/><path d="m153.410156 84.769531c0 4.207031-3.410156 7.613281-7.617187 7.613281h-51.214844v-15.226562h51.214844c4.207031 0 7.617187 3.410156 7.617187 7.613281zm0 0"/></g><path d="m417.421875 198.800781v162.019531h-122.390625v-162.019531l6.710938-17.691406 24.167968-63.660156 6.082032-16.007813 2.96875-7.832031c.902343-.179687 1.808593-.359375 2.710937-.519531 6.390625-1.128906 12.871094-1.6875 19.339844-1.679688 7.140625.011719 14.269531.71875 21.289062 2.140625l2.929688 7.890625 33.03125 88.847656zm0 0" fill="#ffd55c"/><path d="m417.421875 198.800781v162.019531h-122.390625v-162.019531l6.710938-17.691406 24.167968-63.660156 6.082032-16.007813 2.96875-7.832031c.902343-.179687 1.808593-.359375 2.710937-.519531 6.398437-1.128906 12.871094-1.699219 19.339844-1.6875v.007812l-3.808594 10.03125-19.023437 50.109375-8.566407 22.570313-8.621093 22.710937c-.5 1.296875-.75 2.679688-.75 4.070313 0 3.078125 1.238281 6.027344 3.429687 8.167968.160156.152344.320313.300782.480469.441407l6.597656 5.777343 21.0625-20.179687c2.277344-2.179687 5.257812-3.378906 8.417969-3.378906 3.152343 0 6.132812 1.199219 8.410156 3.378906l21.0625 20.179687 28.558594-25zm0 0" fill="#ffc640"/><path d="m381.234375 101.4375-17.511719-47.117188c-2.375-6.390624-11.40625-6.421874-13.828125-.046874l-17.902343 47.164062zm0 0" fill="#3e4959"/><path d="m417.421875 198.800781v162.019531h-122.390625v-162.019531l20.628906 18.058594 8.820313 7.722656c.722656.628907 1.632812.929688 2.53125.898438.128906 0 .25-.007813.378906-.03125.089844-.007813.179687-.019531.269531-.039063.011719-.007812.019532-.007812.042969-.007812.097656-.023438.1875-.050782.289063-.082032.097656-.03125.210937-.058593.308593-.109374.410157-.171876.800781-.410157 1.140625-.738282l24.238282-23.242187c1.421874-1.359375 3.671874-1.359375 5.089843 0l24.242188 23.242187c.320312.308594.691406.539063 1.078125.707032.089844.050781.179687.082031.28125.109374.289062.101563.601562.171876.910156.183594.949219.078125 1.929688-.222656 2.699219-.890625zm0 0" fill="#f15424"/><path d="m385.28125 225.472656v135.347656h-58.269531v-135.339843c.128906 0 .25-.007813.378906-.03125.089844-.007813.179687-.019531.269531-.039063.011719-.007812.019532-.007812.042969-.007812.089844-.023438.1875-.050782.289063-.082032.097656-.03125.210937-.070312.308593-.109374.410157-.171876.800781-.410157 1.140625-.738282l24.238282-23.242187c1.421874-1.359375 3.671874-1.359375 5.089843 0l24.242188 23.242187c.320312.308594.691406.539063 1.078125.707032.089844.042968.179687.082031.28125.109374.300781.101563.601562.160157.910156.183594zm0 0" fill="#ff6d3b"/><path d="m367.367188 64.125-3.644532-9.804688c-2.375-6.390624-11.40625-6.421874-13.828125-.046874l-17.902343 47.164062h21.210937zm0 0" fill="#242d3c"/><path d="m334.085938 149.460938c-2.265626-37.589844-53.046876-122.84375-67.976563-147.171876-1.871094-3.050781-6.308594-3.050781-8.179687 0-14.929688 24.328126-65.710938 109.585938-67.972657 147.171876-2.660156 44.09375 32.6875 89.957031 32.6875 89.957031h78.746094c.003906-.003907 35.351563-45.867188 32.695313-89.957031zm0 0" fill="#fff"/><path d="m215.25 149.460938c1.9375-32.109376 39.269531-98.992188 59.417969-132.976563-3.441407-5.800781-6.382813-10.648437-8.558594-14.195313-1.871094-3.050781-6.308594-3.050781-8.179687 0-14.929688 24.328126-65.710938 109.582032-67.972657 147.171876-2.660156 44.089843 32.6875 89.953124 32.6875 89.953124h25.296875s-35.347656-45.863281-32.691406-89.953124zm0 0" fill="#f2f2f2"/><path d="m217.042969 249.242188h89.957031v111.578124h-89.957031zm0 0" fill="#465365"/><path d="m217.042969 249.242188h25.289062v111.578124h-25.289062zm0 0" fill="#3e4959"/><path d="m311.734375 270.351562h-99.429687c-2.960938 0-5.367188-2.402343-5.367188-5.367187v-31.496094c0-2.964843 2.40625-5.367187 5.367188-5.367187h99.429687c2.964844 0 5.367187 2.402344 5.367187 5.367187v31.496094c0 2.964844-2.402343 5.367187-5.367187 5.367187zm0 0" fill="#21d8de"/><path d="m232.234375 264.984375v-31.496094c0-2.964843 2.402344-5.367187 5.367187-5.367187h-25.296874c-2.964844 0-5.367188 2.402344-5.367188 5.367187v31.496094c0 2.964844 2.402344 5.367187 5.367188 5.367187h25.296874c-2.964843 0-5.367187-2.402343-5.367187-5.367187zm0 0" fill="#16c6cc"/><path d="m334.085938 149.460938c-2.265626-37.589844-53.046876-122.84375-67.976563-147.171876-1.871094-3.050781-6.308594-3.050781-8.179687 0-9.925782 16.179688-35.707032 59.300782-52.53125 97.429688 13.785156-28.792969 48.730468-5.238281 50.25 36.496094 1.515624 41.738281 34.414062 55.394531 51.355468 41.738281 15.964844-12.875 24.761719-2.226563 21.226563 10.269531 4.042969-12.230468 6.648437-25.574218 5.855469-38.761718zm0 0" fill="#ff6d3b"/><path d="m234.582031 91.152344c12.730469-27.339844 29.003907-55.976563 40.085938-74.667969-3.441407-5.800781-6.382813-10.648437-8.558594-14.195313-1.871094-3.050781-6.308594-3.050781-8.179687 0-9.925782 16.175782-35.707032 59.296876-52.53125 97.429688 6.773437-14.152344 18.664062-15.652344 29.183593-8.566406zm0 0" fill="#f15424"/><path d="m372.613281 410.460938c0 6.414062-5.199219 11.613281-11.613281 11.613281s-11.613281-5.199219-11.613281-11.613281c0-6.414063 5.199219-11.613282 11.613281-11.613282s11.613281 5.199219 11.613281 11.613282zm0 0" fill="#ff6d3b"/><path d="m408.507812 410.460938c0 6.414062-5.199218 11.613281-11.613281 11.613281-6.414062 0-11.613281-5.199219-11.613281-11.613281 0-6.414063 5.199219-11.613282 11.613281-11.613282 6.414063 0 11.613281 5.199219 11.613281 11.613282zm0 0" fill="#ffd55c"/></svg>